<?xml version="1.0" encoding="UTF-8" standalone="no"?>
<!-- Created with Inkscape (http://www.inkscape.org/) -->

<svg
   xmlns:dc="http://purl.org/dc/elements/1.1/"
   xmlns:cc="http://creativecommons.org/ns#"
   xmlns:rdf="http://www.w3.org/1999/02/22-rdf-syntax-ns#"
   xmlns:svg="http://www.w3.org/2000/svg"
   xmlns="http://www.w3.org/2000/svg"
   xmlns:sodipodi="http://sodipodi.sourceforge.net/DTD/sodipodi-0.dtd"
   xmlns:inkscape="http://www.inkscape.org/namespaces/inkscape"
   width="210mm"
   height="297mm"
   viewBox="0 0 210 297"
   version="1.1"
   id="svg8"
   inkscape:version="0.92.1 r15371"
   sodipodi:docname="wizard_girl.svg">
  <defs
     id="defs2">
    <filter
       inkscape:collect="always"
       style="color-interpolation-filters:sRGB"
       id="filter4709"
       x="-0.020465347"
       width="1.0409307"
       y="-0.0084887062"
       height="1.0169774">
      <feGaussianBlur
         inkscape:collect="always"
         stdDeviation="0.23018587"
         id="feGaussianBlur4711" />
    </filter>
    <filter
       inkscape:collect="always"
       style="color-interpolation-filters:sRGB"
       id="filter4717"
       x="-0.013203593"
       width="1.0264072"
       y="-0.010997506"
       height="1.021995">
      <feGaussianBlur
         inkscape:collect="always"
         stdDeviation="0.24555387"
         id="feGaussianBlur4719" />
    </filter>
    <filter
       inkscape:collect="always"
       style="color-interpolation-filters:sRGB"
       id="filter4856"
       x="-0.029068844"
       width="1.0581377"
       y="-0.0075605463"
       height="1.0151211">
      <feGaussianBlur
         inkscape:collect="always"
         stdDeviation="1.7549237"
         id="feGaussianBlur4858" />
    </filter>
  </defs>
  <sodipodi:namedview
     id="base"
     pagecolor="#ffffff"
     bordercolor="#666666"
     borderopacity="1.0"
     inkscape:pageopacity="0.0"
     inkscape:pageshadow="2"
     inkscape:zoom="0.49497475"
     inkscape:cx="548.52439"
     inkscape:cy="1276.6253"
     inkscape:document-units="mm"
     inkscape:current-layer="layer6"
     showgrid="false"
     showguides="false"
     inkscape:window-width="1852"
     inkscape:window-height="1057"
     inkscape:window-x="60"
     inkscape:window-y="-8"
     inkscape:window-maximized="1" />
  <metadata
     id="metadata5">
    <rdf:RDF>
      <cc:Work
         rdf:about="">
        <dc:format>image/svg+xml</dc:format>
        <dc:type
           rdf:resource="http://purl.org/dc/dcmitype/StillImage" />
        <dc:title />
      </cc:Work>
    </rdf:RDF>
  </metadata>
  <g
     inkscape:groupmode="layer"
     id="layer2"
     inkscape:label="tower"
     style="display:inline">
    <g
       inkscape:groupmode="layer"
       id="layer6"
       inkscape:label="background">
      <rect
         style="opacity:1;vector-effect:none;fill:#ffffff;fill-opacity:1;fill-rule:evenodd;stroke:#ffffff;stroke-width:1.3416177;stroke-linecap:round;stroke-linejoin:round;stroke-miterlimit:4;stroke-dasharray:none;stroke-dashoffset:0;stroke-opacity:1"
         id="rect4630"
         width="538.69678"
         height="491.35559"
         x="-135.78085"
         y="-260.88614"
         rx="6.4765482"
         ry="9.731109e-007" />
      <path
         style="fill:#fefefe;fill-opacity:1;stroke:#ffffff;stroke-width:1.32291663;stroke-linecap:butt;stroke-linejoin:miter;stroke-miterlimit:4;stroke-dasharray:none;stroke-opacity:1;filter:url(#filter4856)"
         d="m 179.53167,220.85312 96.00596,0.75595 14.74809,-250.046571 -31.56882,-98.986509 -0.53454,-133.63476 -17.63979,-10.15625 -22.45064,-155.55085 -19.77794,156.61993 -31.00327,22.98518 26.19241,92.47526 -48.10851,128.289372 z"
         id="path4854"
         inkscape:connector-curvature="0"
         sodipodi:nodetypes="cccccccccccc"
         transform="matrix(0.53280266,0,0,0.53280266,85.992968,1.2392858)" />
      <path
         style="fill:#fefefe;fill-opacity:1;stroke:#ffffff;stroke-width:1.32291663;stroke-linecap:butt;stroke-linejoin:miter;stroke-miterlimit:4;stroke-dasharray:none;stroke-opacity:0.55050504;filter:url(#filter4717)"
         d="m 88.466212,140.51369 44.634008,-0.66817 -2.93996,-52.919371 -26.86059,4.944488 -3.20723,21.648833 -9.755341,10.82441 z"
         id="path4683"
         inkscape:connector-curvature="0" />
      <path
         style="fill:#fefefe;fill-opacity:1;stroke:#ffffff;stroke-width:1.32291663;stroke-linecap:butt;stroke-linejoin:miter;stroke-miterlimit:4;stroke-dasharray:none;stroke-opacity:0.56060606;filter:url(#filter4709)"
         d="m 142.72193,139.97915 h 15.36799 l -3.34087,-26.32605 9.35444,0.53454 -0.13364,-10.02261 -5.74629,2.13816 -2.13816,-7.349911 0.93545,-9.621702 -8.41899,-14.432555 -7.88445,15.768902 3.20723,16.704346 -6.81537,12.6953 5.47902,2.6727 -1.73725,16.1698 z"
         id="path4707"
         inkscape:connector-curvature="0" />
      <path
         style="fill:#161616;fill-opacity:1;stroke:#000000;stroke-width:0.18511681px;stroke-linecap:butt;stroke-linejoin:miter;stroke-opacity:1"
         d="m 184.77817,3.580134 c 3.61058,-17.870853 -4.32545,-10.6547679 -4.73259,-0.8681757 -0.16133,3.8781275 -0.5761,73.7538067 0.0933,100.6915617 0.87315,35.13974 -1.18345,-71.002957 4.63934,-99.823386 z"
         id="path4723"
         inkscape:connector-curvature="0"
         sodipodi:nodetypes="ssss" />
      <path
         style="fill:#161616;fill-opacity:1;stroke:#000000;stroke-width:0.18592711px;stroke-linecap:butt;stroke-linejoin:miter;stroke-opacity:1"
         d="m 228.74274,3.1280643 c 0.26478,-18.6867163 -5.4904,-10.6854422 -4.73259,-0.8757913 5.39234,69.803017 1.71825,90.371795 3.22219,106.320547 1.28464,13.62312 1.01121,-70.214148 1.5104,-105.4447557 z"
         id="path4723-2"
         inkscape:connector-curvature="0"
         sodipodi:nodetypes="ssss" />
      <path
         style="fill:#000000;fill-opacity:1;stroke:#000000;stroke-width:0.14097069px;stroke-linecap:butt;stroke-linejoin:miter;stroke-opacity:1"
         d="m 177.42254,-11.495649 c -6.50122,-1.995431 -3.64073,-4.767072 3.22219,-1.611093 25.972,11.9434788 68.66211,-5.678438 47.52726,2.215253 -10.63337,3.9714748 -30.09569,5.7351348 -50.74945,-0.60416 z"
         id="path4761"
         inkscape:connector-curvature="0"
         sodipodi:nodetypes="ssss" />
      <path
         style="fill:#000000;fill-opacity:1;stroke:#000000;stroke-width:0.14097069px;stroke-linecap:butt;stroke-linejoin:miter;stroke-opacity:1"
         d="m 199.76914,-97.536296 c -0.63453,-2.508134 2.52917,-13.839684 3.35307,-11.969564 3.82634,8.68518 2.567,3.74117 3.05501,12.681575 1.69395,31.033283 -20.26686,71.649716 -31.46786,79.585185 -6.78273,4.805296 35.08963,-40.651515 25.05978,-80.297196 z"
         id="path4763"
         inkscape:connector-curvature="0"
         sodipodi:nodetypes="sssss" />
      <path
         style="fill:#000000;fill-opacity:1;stroke:#000000;stroke-width:0.14097069px;stroke-linecap:butt;stroke-linejoin:miter;stroke-opacity:1"
         d="m 211.89335,-80.547728 c -12.15133,19.437999 18.06657,59.61915 21.04492,64.343055 5.40068,8.5658998 -30.66702,-42.337272 -30.45757,-57.932736 0.14097,-10.496841 9.87971,-8.958597 8.3181,-17.711325 -1.74559,-9.783936 3.73771,1.523837 4.04836,3.482974 0.33392,2.105881 -2.36905,6.882617 -2.95381,7.818032 z"
         id="path4765"
         inkscape:connector-curvature="0"
         sodipodi:nodetypes="ssssss" />
      <path
         style="fill:#000000;fill-opacity:1;stroke:#000000;stroke-width:0.11271824px;stroke-linecap:butt;stroke-linejoin:miter;stroke-opacity:1"
         d="m 205.14655,-113.44486 c 0.0893,2.08868 -0.72145,5.21787 -1.28426,3.20447 -1.44126,-5.15588 -7.17261,-12.02327 -10.46176,-13.76654 -1.4424,-0.7645 -0.59103,-3.38917 0.44434,-3.45351 0.47029,-0.0292 11.0624,8.41682 11.30168,14.01558 z"
         id="path4767"
         inkscape:connector-curvature="0"
         sodipodi:nodetypes="sssss" />
      <path
         style="fill:#000000;fill-opacity:1;stroke:#000000;stroke-width:0.11271824px;stroke-linecap:butt;stroke-linejoin:miter;stroke-opacity:1"
         d="m 203.88201,-147.44207 c 1.05895,5.49595 5.74058,13.48168 8.58013,15.88886 1.24523,1.05563 1.06198,3.08111 0.0369,2.92224 -0.46564,-0.0722 -9.71036,-11.39244 -9.77777,-13.92351 -0.0989,-3.71341 0.76524,-6.94042 1.16077,-4.88759 z"
         id="path4767-7"
         inkscape:connector-curvature="0"
         sodipodi:nodetypes="sssss" />
      <path
         style="fill:#000000;fill-opacity:1;stroke:#000000;stroke-width:0.11271824px;stroke-linecap:butt;stroke-linejoin:miter;stroke-opacity:1"
         d="m 202.023,-141.25692 c 0.72509,0.36605 1.52218,3.87945 1.27882,4.65439 -1.0997,3.50178 -2.84258,5.1474 -6.03471,7.85652 -0.63201,0.53638 -4.79371,0.22458 -4.09906,-0.22772 6.76302,-4.40354 8.29577,-12.56548 8.85495,-12.28319 z"
         id="path4784"
         inkscape:connector-curvature="0"
         sodipodi:nodetypes="sssss" />
      <path
         style="fill:#000000;fill-opacity:1;stroke:#000000;stroke-width:0.11271824px;stroke-linecap:butt;stroke-linejoin:miter;stroke-opacity:1"
         d="m 206.44913,-115.89763 c -0.30213,0.75397 -1.4156,-3.23439 -0.80707,-3.7724 1.89784,-1.67787 3.28278,-5.87936 4.71336,-7.26816 0.79321,-0.77004 2.71693,0.34374 0.8728,1.62538 -2.07594,1.44276 -4.53465,8.80518 -4.77909,9.41518 z"
         id="path4784-4"
         inkscape:connector-curvature="0"
         sodipodi:nodetypes="sssss" />
      <path
         style="fill:#000000;fill-opacity:1;stroke:#000000;stroke-width:0.14097069px;stroke-linecap:butt;stroke-linejoin:miter;stroke-opacity:1"
         d="m 200.51753,-147.59172 c 0.81561,1.91719 -0.29291,-2.59737 3.84049,-4.33154 0.91954,-0.3858 -1.08221,-4.2325 -1.42873,-9.9716 -0.57802,-9.57316 -0.17714,-26.28825 -0.20235,-28.64737 -0.33732,-31.56659 -4.00295,38.73458 -2.20941,42.95051 z"
         id="path4801"
         inkscape:connector-curvature="0"
         sodipodi:nodetypes="sssss" />
      <path
         style="fill:#000000;fill-opacity:1;stroke:#000000;stroke-width:0.14097069px;stroke-linecap:butt;stroke-linejoin:miter;stroke-opacity:1"
         d="m 209.66903,-115.35402 c -6.59767,-0.0289 -2.11909,2.96775 0.85441,3.06164 19.77602,0.62448 -0.85169,6.99478 0.174,6.91069 10.97569,-0.89995 15.47704,-9.90012 -1.02841,-9.97233 z"
         id="path4803"
         inkscape:connector-curvature="0"
         sodipodi:nodetypes="ssss" />
      <path
         style="fill:#000000;fill-opacity:1;stroke:#000000;stroke-width:0.14097069px;stroke-linecap:butt;stroke-linejoin:miter;stroke-opacity:1"
         d="m 196.81714,-108.78062 c -14.44941,-2.01145 0.19519,-5.02421 0.19519,-5.02421 -22.23126,3.25777 -3.64899,8.52779 1.59461,7.62539 2.51791,-0.43331 1.18974,-2.18641 -1.7898,-2.60118 z"
         id="path4803-1"
         inkscape:connector-curvature="0"
         sodipodi:nodetypes="ssss" />
      <path
         style="fill:#000000;fill-opacity:1;stroke:#000000;stroke-width:0.14097069px;stroke-linecap:butt;stroke-linejoin:miter;stroke-opacity:1"
         d="m 188.37345,-116.48818 c -0.78922,0.54049 1.07514,2.52868 1.93821,2.11622 4.62262,-2.20916 -9.15518,-27.97711 -3.50686,-14.59317 5.50824,13.05199 2.94849,11.53198 1.56865,12.47695 z"
         id="path4820"
         inkscape:connector-curvature="0"
         sodipodi:nodetypes="ssss" />
      <path
         style="fill:#000000;fill-opacity:1;stroke:#000000;stroke-width:0.14097069px;stroke-linecap:butt;stroke-linejoin:miter;stroke-opacity:1"
         d="m 212.39821,-121.49709 c -0.95654,0.005 -0.52614,2.69692 0.41984,2.8388 5.06672,0.75993 8.44197,-22.35227 6.6104,-13.87605 -2.99213,13.8471 -5.35787,11.02757 -7.03024,11.03725 z"
         id="path4820-6"
         inkscape:connector-curvature="0"
         sodipodi:nodetypes="ssss" />
      <path
         style="fill:#000000;fill-opacity:1;stroke:#000000;stroke-width:0.14097069px;stroke-linecap:butt;stroke-linejoin:miter;stroke-opacity:1"
         d="m 199.75208,-202.08486 c -0.91254,0.28682 0.29092,2.73232 1.23676,2.5895 5.06596,-0.76495 -0.59773,-29.43091 0.90166,-14.98151 1.46219,14.09102 -0.54297,11.89055 -2.13842,12.39201 z"
         id="path4820-2"
         inkscape:connector-curvature="0"
         sodipodi:nodetypes="ssss" />
      <path
         style="fill:#161616;fill-opacity:1;stroke:#000000;stroke-width:0.22324803px;stroke-linecap:butt;stroke-linejoin:miter;stroke-opacity:1"
         d="m 177.52881,116.85995 c -2.73291,1.00991 4.05573,-1.83993 8.37644,0.79034 0.60926,0.37089 2.91762,-1.06458 2.15281,-1.13392 -7.05369,-0.63947 -7.61631,-0.73285 -10.52925,0.34358 z"
         id="path4860"
         inkscape:connector-curvature="0"
         sodipodi:nodetypes="ssss" />
      <path
         style="fill:#161616;fill-opacity:1;stroke:#000000;stroke-width:0.17963056px;stroke-linecap:butt;stroke-linejoin:miter;stroke-opacity:1"
         d="m 186.85247,114.26142 c -1.76934,1.00991 2.69065,-2.44129 5.48796,0.18898 0.39444,0.37089 1.88892,-1.06458 1.39376,-1.13392 -4.56669,-0.63947 -4.99583,-0.13149 -6.88172,0.94494 z"
         id="path4860-9"
         inkscape:connector-curvature="0"
         sodipodi:nodetypes="ssss" />
      <path
         style="fill:#161616;fill-opacity:1;stroke:#000000;stroke-width:0.22324803px;stroke-linecap:butt;stroke-linejoin:miter;stroke-opacity:1"
         d="m 173.86802,116.03884 c -2.83056,0.69041 4.40812,-1.94946 8.39931,1.15815 0.56279,0.4382 3.02031,-0.72357 2.26847,-0.88001 -6.93411,-1.44277 -7.65076,-1.01402 -10.66778,-0.27814 z"
         id="path4860-5"
         inkscape:connector-curvature="0"
         sodipodi:nodetypes="ssss" />
      <path
         style="fill:#161616;fill-opacity:1;stroke:#000000;stroke-width:0.22324803px;stroke-linecap:butt;stroke-linejoin:miter;stroke-opacity:1"
         d="m 179.18184,115.11186 c -2.73291,1.00991 4.15596,-2.44129 8.47667,0.18898 0.60926,0.37089 2.91762,-1.06458 2.15281,-1.13392 -7.05369,-0.63947 -7.71654,-0.13149 -10.62948,0.94494 z"
         id="path4860-1"
         inkscape:connector-curvature="0"
         sodipodi:nodetypes="ssss" />
      <path
         style="fill:#161616;fill-opacity:1;stroke:#000000;stroke-width:0.22324803px;stroke-linecap:butt;stroke-linejoin:miter;stroke-opacity:1"
         d="m 185.60251,117.20324 c -2.85834,0.56449 4.49005,-1.75251 8.33983,1.52865 0.54286,0.46267 3.04937,-0.58922 2.30519,-0.77878 -6.86349,-1.74817 -7.5984,-1.35154 -10.64502,-0.74987 z"
         id="path4860-6"
         inkscape:connector-curvature="0"
         sodipodi:nodetypes="ssss" />
      <path
         style="fill:#161616;fill-opacity:1;stroke:#000000;stroke-width:0.22324803px;stroke-linecap:butt;stroke-linejoin:miter;stroke-opacity:1"
         d="m 188.8225,117.88026 c -2.73291,1.00991 4.15596,-2.44129 8.47667,0.18898 0.60926,0.37089 2.91762,-1.06458 2.15281,-1.13392 -7.05369,-0.63947 -7.71654,-0.13149 -10.62948,0.94494 z"
         id="path4860-0"
         inkscape:connector-curvature="0"
         sodipodi:nodetypes="ssss" />
      <path
         style="fill:#161616;fill-opacity:1;stroke:#000000;stroke-width:0.22324803px;stroke-linecap:butt;stroke-linejoin:miter;stroke-opacity:1"
         d="m 192.297,118.41479 c -2.73291,1.00991 4.15596,-2.44129 8.47667,0.18898 0.60926,0.37089 2.91762,-1.06458 2.15281,-1.13392 -7.05369,-0.63947 -7.71654,-0.13149 -10.62948,0.94494 z"
         id="path4860-8"
         inkscape:connector-curvature="0"
         sodipodi:nodetypes="ssss" />
      <path
         style="fill:#161616;fill-opacity:1;stroke:#000000;stroke-width:0.22324803px;stroke-linecap:butt;stroke-linejoin:miter;stroke-opacity:1"
         d="m 203.77779,119.0114 c -2.73291,1.00991 4.15596,-2.44129 8.47667,0.18898 0.60926,0.37089 2.91762,-1.06458 2.15281,-1.13392 -7.05369,-0.63947 -7.71654,-0.13149 -10.62948,0.94494 z"
         id="path4860-16"
         inkscape:connector-curvature="0"
         sodipodi:nodetypes="ssss" />
      <path
         style="fill:#161616;fill-opacity:1;stroke:#000000;stroke-width:0.28573579px;stroke-linecap:butt;stroke-linejoin:miter;stroke-opacity:1"
         d="m 193.81678,120.69608 c -4.47692,1.00991 6.80809,-2.44129 13.88606,0.18898 0.99806,0.37089 4.7795,-1.06458 3.52663,-1.13392 -11.55501,-0.63947 -12.64086,-0.13149 -17.41269,0.94494 z"
         id="path4860-60"
         inkscape:connector-curvature="0"
         sodipodi:nodetypes="ssss" />
      <path
         style="fill:#161616;fill-opacity:1;stroke:#000000;stroke-width:0.28573579px;stroke-linecap:butt;stroke-linejoin:miter;stroke-opacity:1"
         d="m 207.42815,121.95681 c -4.47692,1.00991 6.80809,-2.44129 13.88606,0.18898 0.99806,0.37089 4.7795,-1.06458 3.52663,-1.13392 -11.55501,-0.63947 -12.64086,-0.13149 -17.41269,0.94494 z"
         id="path4860-60-3"
         inkscape:connector-curvature="0"
         sodipodi:nodetypes="ssss" />
      <path
         style="fill:#161616;fill-opacity:1;stroke:#000000;stroke-width:0.28573579px;stroke-linecap:butt;stroke-linejoin:miter;stroke-opacity:1"
         d="m 215.85726,118.82676 c -4.54765,0.61773 6.99421,-1.8415 13.81733,1.39287 0.96212,0.45607 4.85383,-0.64595 3.6117,-0.82372 -11.45598,-1.63944 -12.5818,-1.22757 -17.42903,-0.56915 z"
         id="path4860-60-0"
         inkscape:connector-curvature="0"
         sodipodi:nodetypes="ssss" />
      <path
         style="fill:#161616;fill-opacity:1;stroke:#000000;stroke-width:0.28573579px;stroke-linecap:butt;stroke-linejoin:miter;stroke-opacity:1"
         d="m 266.4928,122.01882 c -4.55579,0.55453 7.01911,-1.74419 13.79665,1.58461 0.9557,0.4694 4.86233,-0.57848 3.62279,-0.77348 -11.43211,-1.79837 -12.56354,-1.40217 -17.41944,-0.81113 z"
         id="path4860-60-0-2"
         inkscape:connector-curvature="0"
         sodipodi:nodetypes="ssss" />
      <path
         style="fill:#161616;fill-opacity:1;stroke:#000000;stroke-width:0.28573579px;stroke-linecap:butt;stroke-linejoin:miter;stroke-opacity:1"
         d="m 229.17084,122.43859 c -4.37086,1.39939 6.56724,-3.03008 13.84896,-1.03193 1.02679,0.28176 4.66746,-1.48044 3.41335,-1.43942 -11.56651,0.37835 -12.60352,0.97978 -17.26231,2.47135 z"
         id="path4860-60-0-28"
         inkscape:connector-curvature="0"
         sodipodi:nodetypes="ssss" />
      <path
         style="fill:#161616;fill-opacity:1;stroke:#000000;stroke-width:0.28573579px;stroke-linecap:butt;stroke-linejoin:miter;stroke-opacity:1"
         d="m 253.63342,119.5956 c -4.57719,0.33479 7.09486,-1.40463 13.70448,2.24625 0.93202,0.51481 4.88452,-0.34399 3.6558,-0.59837 -11.3324,-2.34605 -12.48158,-2.00473 -17.36028,-1.64788 z"
         id="path4860-60-0-5"
         inkscape:connector-curvature="0"
         sodipodi:nodetypes="ssss" />
      <path
         style="fill:#161616;fill-opacity:1;stroke:#000000;stroke-width:0.28573579px;stroke-linecap:butt;stroke-linejoin:miter;stroke-opacity:1"
         d="m 241.69245,120.53107 c -4.55809,0.53528 7.02641,-1.71454 13.78984,1.64284 0.95371,0.47343 4.86473,-0.55795 3.62603,-0.75818 -11.42442,-1.84662 -12.55751,-1.4552 -17.41587,-0.88466 z"
         id="path4860-60-0-1"
         inkscape:connector-curvature="0"
         sodipodi:nodetypes="ssss" />
      <path
         style="fill:#161616;fill-opacity:1;stroke:#000000;stroke-width:0.28573579px;stroke-linecap:butt;stroke-linejoin:miter;stroke-opacity:1"
         d="m 250.40472,131.58082 c -4.55809,0.53528 7.02641,-1.71454 13.78984,1.64284 0.95371,0.47343 4.86473,-0.55795 3.62603,-0.75818 -11.42442,-1.84662 -12.55751,-1.4552 -17.41587,-0.88466 z"
         id="path4860-60-0-1-80"
         inkscape:connector-curvature="0"
         sodipodi:nodetypes="ssss" />
      <path
         style="fill:#161616;fill-opacity:1;stroke:#000000;stroke-width:0.28573579px;stroke-linecap:butt;stroke-linejoin:miter;stroke-opacity:1"
         d="m 243.32207,134.52079 c -4.55809,0.53528 7.02641,-1.71454 13.78985,1.64284 0.95371,0.47343 4.86473,-0.55795 3.62603,-0.75818 -11.42443,-1.84662 -12.55752,-1.4552 -17.41588,-0.88466 z"
         id="path4860-60-0-1-57"
         inkscape:connector-curvature="0"
         sodipodi:nodetypes="ssss" />
      <path
         style="fill:#161616;fill-opacity:1;stroke:#000000;stroke-width:0.28573579px;stroke-linecap:butt;stroke-linejoin:miter;stroke-opacity:1"
         d="m 249.20689,138.86588 c -4.55809,0.53528 7.02641,-1.71454 13.78984,1.64284 0.95371,0.47343 4.86473,-0.55795 3.62603,-0.75818 -11.42442,-1.84662 -12.55751,-1.4552 -17.41587,-0.88466 z"
         id="path4860-60-0-1-97"
         inkscape:connector-curvature="0"
         sodipodi:nodetypes="ssss" />
      <path
         style="fill:#161616;fill-opacity:1;stroke:#000000;stroke-width:0.28573579px;stroke-linecap:butt;stroke-linejoin:miter;stroke-opacity:1"
         d="m 240.0968,137.04872 c -4.55809,0.53528 7.02641,-1.71454 13.78984,1.64284 0.95371,0.47343 4.86473,-0.55795 3.62603,-0.75818 -11.42442,-1.84662 -12.55751,-1.4552 -17.41587,-0.88466 z"
         id="path4860-60-0-1-43"
         inkscape:connector-curvature="0"
         sodipodi:nodetypes="ssss" />
      <path
         style="fill:#161616;fill-opacity:1;stroke:#000000;stroke-width:0.28573579px;stroke-linecap:butt;stroke-linejoin:miter;stroke-opacity:1"
         d="m 263.87103,127.12502 c -4.55809,0.53528 7.02641,-1.71454 13.78984,1.64284 0.95371,0.47343 4.86473,-0.55795 3.62603,-0.75818 -11.42442,-1.84662 -12.55751,-1.4552 -17.41587,-0.88466 z"
         id="path4860-60-0-1-44"
         inkscape:connector-curvature="0"
         sodipodi:nodetypes="ssss" />
      <path
         style="fill:#161616;fill-opacity:1;stroke:#000000;stroke-width:0.40330371px;stroke-linecap:butt;stroke-linejoin:miter;stroke-opacity:1"
         d="m 232.58845,144.14249 c -9.08068,0.53528 19.41029,-1.51409 32.88446,1.84329 1.9,0.47343 4.27936,-0.7584 1.81161,-0.95863 -22.75985,-1.84662 -25.0172,-1.4552 -34.69607,-0.88466 z"
         id="path4860-60-0-1-42"
         inkscape:connector-curvature="0"
         sodipodi:nodetypes="ssss" />
      <path
         style="fill:#161616;fill-opacity:1;stroke:#000000;stroke-width:0.40330371px;stroke-linecap:butt;stroke-linejoin:miter;stroke-opacity:1"
         d="m 268.34721,123.42992 c -9.08068,0.53528 19.34347,-1.44727 32.81764,1.91011 1.9,0.47343 4.34619,-0.82522 1.87844,-1.02545 -22.75986,-1.84662 -25.01721,-1.4552 -34.69608,-0.88466 z"
         id="path4860-60-0-1-42-1"
         inkscape:connector-curvature="0"
         sodipodi:nodetypes="ssss" />
      <path
         style="fill:#161616;fill-opacity:1;stroke:#000000;stroke-width:0.40330371px;stroke-linecap:butt;stroke-linejoin:miter;stroke-opacity:1"
         d="m 215.56149,141.73788 c -9.08068,0.53528 17.87349,-1.38045 31.34766,1.97693 1.9,0.47343 5.81616,-0.89204 3.34841,-1.09227 -22.75985,-1.84662 -25.0172,-1.4552 -34.69607,-0.88466 z"
         id="path4860-60-0-1-42-2"
         inkscape:connector-curvature="0"
         sodipodi:nodetypes="ssss" />
      <path
         style="fill:#161616;fill-opacity:1;stroke:#000000;stroke-width:0.28573579px;stroke-linecap:butt;stroke-linejoin:miter;stroke-opacity:1"
         d="m 259.48395,141.19326 c -4.55809,0.53528 7.02641,-1.71454 13.78984,1.64284 0.95371,0.47343 4.86473,-0.55795 3.62603,-0.75818 -11.42442,-1.84662 -12.55751,-1.4552 -17.41587,-0.88466 z"
         id="path4860-60-0-1-97-6"
         inkscape:connector-curvature="0"
         sodipodi:nodetypes="ssss" />
      <path
         style="fill:#161616;fill-opacity:1;stroke:#000000;stroke-width:0.28573579px;stroke-linecap:butt;stroke-linejoin:miter;stroke-opacity:1"
         d="m 262.50776,144.40606 c -4.55809,0.53528 7.02641,-1.71454 13.78984,1.64284 0.95371,0.47343 4.86473,-0.55795 3.62603,-0.75818 -11.42442,-1.84662 -12.55752,-1.4552 -17.41587,-0.88466 z"
         id="path4860-60-0-1-97-8"
         inkscape:connector-curvature="0"
         sodipodi:nodetypes="ssss" />
      <path
         style="fill:#161616;fill-opacity:1;stroke:#000000;stroke-width:0.28573579px;stroke-linecap:butt;stroke-linejoin:miter;stroke-opacity:1"
         d="m 226.27604,137.79704 c -4.55809,0.53528 7.02641,-1.71454 13.78984,1.64284 0.95371,0.47343 4.86473,-0.55795 3.62603,-0.75818 -11.42442,-1.84662 -12.55751,-1.4552 -17.41587,-0.88466 z"
         id="path4860-60-0-1-97-5"
         inkscape:connector-curvature="0"
         sodipodi:nodetypes="ssss" />
      <path
         style="fill:#161616;fill-opacity:1;stroke:#000000;stroke-width:0.28573579px;stroke-linecap:butt;stroke-linejoin:miter;stroke-opacity:1"
         d="m 239.03063,140.4753 c -4.55809,0.53528 7.02641,-1.71454 13.78984,1.64284 0.95371,0.47343 4.86473,-0.55795 3.62603,-0.75818 -11.42442,-1.84662 -12.55751,-1.4552 -17.41587,-0.88466 z"
         id="path4860-60-0-1-97-4"
         inkscape:connector-curvature="0"
         sodipodi:nodetypes="ssss" />
      <path
         style="fill:#161616;fill-opacity:1;stroke:#000000;stroke-width:0.28573579px;stroke-linecap:butt;stroke-linejoin:miter;stroke-opacity:1"
         d="m 278.99647,147.19718 c -4.31397,1.56598 6.44622,-3.2797 13.7992,-1.56228 1.03685,0.24218 4.60726,-1.65834 3.35565,-1.56926 -11.5435,0.82164 -12.55668,1.4624 -17.15485,3.13154 z"
         id="path4860-60-0-1-97-59"
         inkscape:connector-curvature="0"
         sodipodi:nodetypes="ssss" />
      <path
         style="fill:#161616;fill-opacity:1;stroke:#000000;stroke-width:0.28573579px;stroke-linecap:butt;stroke-linejoin:miter;stroke-opacity:1"
         d="m 295.61213,143.06348 c -4.55809,0.53528 7.02641,-1.71454 13.78985,1.64284 0.95371,0.47343 4.86473,-0.55795 3.62603,-0.75818 -11.42443,-1.84662 -12.55752,-1.4552 -17.41588,-0.88466 z"
         id="path4860-60-0-1-97-53"
         inkscape:connector-curvature="0"
         sodipodi:nodetypes="ssss" />
      <path
         style="fill:#161616;fill-opacity:1;stroke:#000000;stroke-width:0.40330371px;stroke-linecap:butt;stroke-linejoin:miter;stroke-opacity:1"
         d="m 249.97277,129.65166 c -9.08068,0.53528 17.87349,-1.38045 31.34766,1.97693 1.9,0.47343 5.81616,-0.89204 3.34841,-1.09227 -22.75985,-1.84662 -25.0172,-1.4552 -34.69607,-0.88466 z"
         id="path4860-60-0-1-42-2-7"
         inkscape:connector-curvature="0"
         sodipodi:nodetypes="ssss" />
      <path
         style="fill:#161616;fill-opacity:1;stroke:#000000;stroke-width:0.40330371px;stroke-linecap:butt;stroke-linejoin:miter;stroke-opacity:1"
         d="m 261.52072,124.31021 c -9.08068,0.53528 17.87349,-1.38045 31.34766,1.97693 1.9,0.47343 5.81616,-0.89204 3.34841,-1.09227 -22.75985,-1.84662 -25.0172,-1.4552 -34.69607,-0.88466 z"
         id="path4860-60-0-1-42-2-4"
         inkscape:connector-curvature="0"
         sodipodi:nodetypes="ssss" />
      <path
         style="fill:#161616;fill-opacity:1;stroke:#000000;stroke-width:0.40330371px;stroke-linecap:butt;stroke-linejoin:miter;stroke-opacity:1"
         d="m 227.08878,122.11333 c -9.08068,0.53528 17.87349,-1.38045 31.34766,1.97693 1.9,0.47343 5.81616,-0.89204 3.34841,-1.09227 -22.75985,-1.84662 -25.0172,-1.4552 -34.69607,-0.88466 z"
         id="path4860-60-0-1-42-2-8"
         inkscape:connector-curvature="0"
         sodipodi:nodetypes="ssss" />
      <path
         style="fill:#161616;fill-opacity:1;stroke:#000000;stroke-width:0.40330371px;stroke-linecap:butt;stroke-linejoin:miter;stroke-opacity:1"
         d="m 271.86269,143.58604 c -9.08068,0.53528 17.87349,-1.38045 31.34766,1.97693 1.9,0.47343 5.81616,-0.89204 3.34841,-1.09227 -22.75985,-1.84662 -25.0172,-1.4552 -34.69607,-0.88466 z"
         id="path4860-60-0-1-42-2-0"
         inkscape:connector-curvature="0"
         sodipodi:nodetypes="ssss" />
      <path
         style="fill:#1f1f1f;fill-opacity:1;stroke:#000000;stroke-width:0.17291118px;stroke-linecap:butt;stroke-linejoin:miter;stroke-opacity:1"
         d="m 196.53928,63.980465 c 0.13614,-1.362228 2.4889,-2.062957 2.46265,-0.260158 -0.033,2.268834 -0.0295,1.494061 -0.14451,3.965261 -0.0655,1.407157 -2.34537,0.870582 -2.34538,-0.675261 0,-1.545843 -0.2098,-0.658014 0.0272,-3.029842 z"
         id="path5458"
         inkscape:connector-curvature="0"
         sodipodi:nodetypes="sssss" />
      <path
         style="fill:#1f1f1f;fill-opacity:1;stroke:#000000;stroke-width:0.16154204px;stroke-linecap:butt;stroke-linejoin:miter;stroke-opacity:1"
         d="m 203.3675,26.627102 c 0.14022,-1.154365 2.56354,-1.748169 2.53649,-0.22046 -0.034,1.92263 -0.0303,1.26608 -0.14884,3.360197 -0.0675,1.192437 -2.4157,0.737739 -2.41571,-0.572223 0,-1.30996 -0.21608,-0.557606 0.028,-2.567514 z"
         id="path5458-3"
         inkscape:connector-curvature="0"
         sodipodi:nodetypes="sssss" />
      <path
         style="fill:#161616;fill-opacity:1;stroke:#000000;stroke-width:0.04460276px;stroke-linecap:butt;stroke-linejoin:miter;stroke-opacity:1"
         d="m 224.70374,46.3885 c -0.39665,0.03782 -0.45842,1.571001 -0.0791,1.427016 1.15007,-0.436536 3.11694,0.08928 3.90178,0.05647 0.40736,-0.01704 0.59216,-1.450772 0.0803,-1.461854 -0.77446,-0.01678 -2.54124,-0.151565 -3.90299,-0.02163 z"
         id="path5225-8-8-1"
         inkscape:connector-curvature="0"
         sodipodi:nodetypes="sssss" />
      <path
         style="fill:#161616;fill-opacity:1;stroke:#000000;stroke-width:0.04460276px;stroke-linecap:butt;stroke-linejoin:miter;stroke-opacity:1"
         d="m 223.10013,14.850696 c -0.39665,0.03782 -0.45842,1.571001 -0.0791,1.427016 1.15007,-0.436536 3.11694,0.08928 3.90178,0.05647 0.40736,-0.01704 0.59216,-1.450772 0.0803,-1.461854 -0.77446,-0.01678 -2.54124,-0.151565 -3.90299,-0.02163 z"
         id="path5225-8-8-13"
         inkscape:connector-curvature="0"
         sodipodi:nodetypes="sssss" />
      <path
         style="fill:#161616;fill-opacity:1;stroke:#000000;stroke-width:0.04460276px;stroke-linecap:butt;stroke-linejoin:miter;stroke-opacity:1"
         d="m 223.10013,99.040597 c -0.39665,0.03782 -0.45842,1.571003 -0.0791,1.427013 1.15007,-0.43653 3.11694,0.0893 3.90178,0.0565 0.40736,-0.017 0.59216,-1.450769 0.0803,-1.461851 -0.77446,-0.01678 -2.54124,-0.151565 -3.90299,-0.02163 z"
         id="path5225-8-8-3"
         inkscape:connector-curvature="0"
         sodipodi:nodetypes="sssss" />
      <path
         style="fill:#161616;fill-opacity:1;stroke:#000000;stroke-width:0.04460276px;stroke-linecap:butt;stroke-linejoin:miter;stroke-opacity:1"
         d="m 222.56559,87.414373 c -0.39665,0.03782 -0.45842,1.571001 -0.0791,1.427016 1.15007,-0.436536 3.11694,0.08928 3.90178,0.05647 0.40736,-0.01704 0.59216,-1.450772 0.0803,-1.461854 -0.77446,-0.01678 -2.54124,-0.151565 -3.90299,-0.02163 z"
         id="path5225-8-8-89"
         inkscape:connector-curvature="0"
         sodipodi:nodetypes="sssss" />
      <path
         style="fill:#161616;fill-opacity:1;stroke:#000000;stroke-width:0.04460276px;stroke-linecap:butt;stroke-linejoin:miter;stroke-opacity:1"
         d="m 221.63014,69.240045 c -0.39665,0.03782 -0.45842,1.571001 -0.0791,1.427016 1.15007,-0.436536 3.11694,0.08928 3.90178,0.05647 0.40736,-0.01704 0.59216,-1.450772 0.0803,-1.461854 -0.77446,-0.01678 -2.54124,-0.151565 -3.90299,-0.02163 z"
         id="path5225-8-8-64"
         inkscape:connector-curvature="0"
         sodipodi:nodetypes="sssss" />
      <path
         style="fill:#161616;fill-opacity:1;stroke:#000000;stroke-width:0.04460276px;stroke-linecap:butt;stroke-linejoin:miter;stroke-opacity:1"
         d="m 221.36287,53.070239 c -0.39665,0.03782 -0.45842,1.571 -0.0791,1.427015 1.15007,-0.436536 3.11694,0.08928 3.90178,0.05647 0.40736,-0.01704 0.59216,-1.450772 0.0803,-1.461853 -0.77446,-0.01678 -2.54124,-0.151566 -3.90299,-0.02163 z"
         id="path5225-8-8-24"
         inkscape:connector-curvature="0"
         sodipodi:nodetypes="sssss" />
      <path
         style="fill:#161616;fill-opacity:1;stroke:#000000;stroke-width:0.04460276px;stroke-linecap:butt;stroke-linejoin:miter;stroke-opacity:1"
         d="m 221.36287,38.23678 c -0.39665,0.03782 -0.45842,1.571001 -0.0791,1.427016 1.15007,-0.436536 3.11694,0.08928 3.90178,0.05647 0.40736,-0.01704 0.59216,-1.450772 0.0803,-1.461854 -0.77446,-0.01678 -2.54124,-0.151565 -3.90299,-0.02163 z"
         id="path5225-8-8-246"
         inkscape:connector-curvature="0"
         sodipodi:nodetypes="sssss" />
      <path
         style="fill:#161616;fill-opacity:1;stroke:#000000;stroke-width:0.04460276px;stroke-linecap:butt;stroke-linejoin:miter;stroke-opacity:1"
         d="m 203.32218,60.152881 c -0.39665,0.03782 -0.45842,1.571001 -0.0791,1.427016 1.15007,-0.436536 3.11694,0.08928 3.90178,0.05647 0.40736,-0.01704 0.59216,-1.450772 0.0803,-1.461854 -0.77446,-0.01678 -2.54124,-0.151565 -3.90299,-0.02163 z"
         id="path5225-8-8-58"
         inkscape:connector-curvature="0"
         sodipodi:nodetypes="sssss" />
    </g>
    <g
       inkscape:groupmode="layer"
       id="layer3"
       inkscape:label="mother"
       style="display:inline"
       sodipodi:insensitive="true">
      <path
         style="fill:#000000;fill-opacity:1;stroke:#000000;stroke-width:0.26458332;stroke-linecap:butt;stroke-linejoin:miter;stroke-miterlimit:4;stroke-dasharray:none;stroke-opacity:1"
         d="m 113.62132,94.009645 c -8.02445,-4.63995 -3.96927,13.267745 -9.91991,18.118785 -3.43124,2.7972 -0.12285,-2.43761 -0.14903,-4.57034 -0.0233,-1.89364 -2.28215,1.38592 -0.62846,-1.23571 5.5547,-8.805995 0.1773,-14.200635 9.69991,-14.200635 0.61113,0 2.09607,2.52313 0.99749,1.8879 z"
         id="path4550"
         inkscape:connector-curvature="0"
         sodipodi:nodetypes="ssssss" />
      <path
         style="fill:#000000;fill-opacity:1;stroke:#000000;stroke-width:0.26458332px;stroke-linecap:butt;stroke-linejoin:miter;stroke-opacity:1"
         d="m 104.86384,136.40645 c -0.64129,2.03469 12.58962,1.75465 12.35775,-0.47247 -0.9756,-9.37063 -4.76506,-29.06955 -2.43588,-26.3166 2.38536,2.81936 3.1034,5.04339 3.49628,8.032 0.0986,0.75016 1.29582,-1.00906 1.13393,-1.74815 -1.34602,-6.1453 -5.93931,-9.12776 -5.9727,-13.20091 -0.026,-3.167525 -0.55651,-2.36077 -1.6981,-2.59077 -1.53727,-0.309715 -3.37312,0.20319 -3.85748,2.94049 -1.34509,7.60152 -3.55582,10.72738 -3.21279,15.49703 0.0251,0.34841 0.891,0.1511 0.94494,-0.18899 0.54467,-3.434 3.59781,-11.4908 3.49628,-9.82738 -0.57668,9.44757 -1.5354,8.69928 -1.79539,13.13467 -0.29247,4.98941 -0.95445,9.97426 -2.45684,14.74108 z"
         id="path4552"
         inkscape:connector-curvature="0"
         sodipodi:nodetypes="sssssssssssss" />
    </g>
    <g
       inkscape:groupmode="layer"
       id="layer4"
       inkscape:label="father"
       sodipodi:insensitive="true">
      <g
         id="g4586"
         transform="translate(7.2162773,-8.0180857)">
        <g
           id="g4595"
           transform="translate(40.632441,-3.96875)">
          <path
             style="fill:#000000;fill-opacity:1;stroke:#000000;stroke-width:0.26458332px;stroke-linecap:butt;stroke-linejoin:miter;stroke-opacity:1"
             d="m 77.039625,110.01255 c -2.19679,-0.69886 1.563176,1.23929 2.862261,2.51335 1.207102,1.18384 0.108024,-1.68093 0.351692,-3.29965 0.147645,-0.98083 -0.110817,1.7735 -3.213953,0.7863 z"
             id="path4563"
             inkscape:connector-curvature="0"
             sodipodi:nodetypes="ssss" />
          <path
             style="fill:#000000;fill-opacity:1;stroke:#000000;stroke-width:0.26458332px;stroke-linecap:butt;stroke-linejoin:miter;stroke-opacity:1"
             d="m 78.319807,102.28129 c -1.669593,-0.1915 -2.475866,0.45368 -4.44897,0.65139 -1.290704,0.12934 -1.857671,-0.25305 -0.825432,-1.03863 1.528238,-1.16304 3.343565,-1.01652 5.808939,-0.86665 1.389774,0.0845 0.848732,1.41255 -0.534537,1.25389 z"
             id="path4567"
             inkscape:connector-curvature="0"
             sodipodi:nodetypes="sssss" />
          <path
             style="fill:#000000;fill-opacity:1;stroke:#000000;stroke-width:0.26458332px;stroke-linecap:butt;stroke-linejoin:miter;stroke-opacity:1"
             d="m 74.6342,102.66263 c 0.01398,-0.75746 -1.550087,-1.02042 -1.870886,-0.3341 -0.982227,2.10138 -1.03806,5.40303 0.467722,7.41673 0.480168,0.64213 3.000026,0.53791 2.405425,0 -2.571088,-2.32595 -1.036417,-5.23166 -1.002261,-7.08263 z"
             id="path4569"
             inkscape:connector-curvature="0"
             sodipodi:nodetypes="sssss" />
          <path
             style="fill:#000000;fill-opacity:1;stroke:#000000;stroke-width:0.26458332px;stroke-linecap:butt;stroke-linejoin:miter;stroke-opacity:1"
             d="m 75.470232,110.91359 c -0.05693,-0.61642 1.882219,0.50806 2.083787,1.13829 0.885398,2.76829 -4.721355,34.08899 -3.862571,36.46418 0.407713,1.12764 -2.265414,1.10488 -3.341684,-0.0587 -1.28273,-1.38682 5.298004,-35.6216 5.120468,-37.54375 z"
             id="path4571"
             inkscape:connector-curvature="0"
             sodipodi:nodetypes="cssssc" />
          <path
             style="fill:#000000;fill-opacity:1;stroke:#000000;stroke-width:0.26458332px;stroke-linecap:butt;stroke-linejoin:miter;stroke-opacity:1"
             d="m 75.121611,131.65854 c -1.247156,-4.86751 1.53154,-11.79787 1.720056,-4.70767 0.05353,2.01311 4.08828,10.49733 5.811433,17.7055 0.403918,1.68965 0.612153,1.96221 1.536801,3.34087 0.764352,1.13966 -4.48338,1.12787 -4.4748,-0.24435 0.03109,-4.9716 -2.952672,-9.69043 -4.59349,-16.09435 z"
             id="path4573"
             inkscape:connector-curvature="0"
             sodipodi:nodetypes="ssssss" />
          <path
             style="fill:#000000;fill-opacity:1;stroke:#000000;stroke-width:0.26458332px;stroke-linecap:butt;stroke-linejoin:miter;stroke-opacity:1"
             d="m 77.192949,128.54946 c -0.580638,-2.26107 -0.246587,-4.80611 0.775811,-7.48652 0.772223,-2.02452 0.438243,4.12621 1.025596,6.86083 0.20664,0.96208 2.546027,1.01861 2.190151,0.10121 -1.653822,-4.26331 -1.10883,-11.95494 -1.395463,-13.96098 -0.07921,-0.55437 -3.381066,-3.41423 -3.662102,-3.09219 -3.016707,3.45682 1.578987,19.57524 1.066007,17.57765 z"
             id="path4575"
             inkscape:connector-curvature="0"
             sodipodi:nodetypes="sssssss" />
          <path
             style="fill:#000000;fill-opacity:1;stroke:#000000;stroke-width:0.26458332px;stroke-linecap:butt;stroke-linejoin:miter;stroke-opacity:1"
             d="m 75.846819,110.71036 c -2.343204,0.11204 -5.074236,2.33218 -5.421299,4.11384 -1.417338,7.27598 -1.245664,6.93349 0.233861,13.89623 0.116103,0.54639 0.990317,-2.14793 0.968852,-2.70611 -0.209095,-5.4374 -0.347932,-4.15041 1.272482,-8.42039 0.452059,-1.19123 -0.216991,8.56505 0.228535,12.57564 0.500242,4.50314 4.453812,-19.54223 2.717569,-19.45921 z"
             id="path4577"
             inkscape:connector-curvature="0"
             sodipodi:nodetypes="sssssss" />
        </g>
      </g>
    </g>
    <g
       inkscape:groupmode="layer"
       id="layer5"
       inkscape:label="wizard"
       sodipodi:insensitive="true">
      <g
         id="g4669">
        <g
           id="g4677">
          <path
             style="fill:#000000;fill-opacity:1;stroke:#000000;stroke-width:0.26458332px;stroke-linecap:butt;stroke-linejoin:miter;stroke-opacity:1"
             d="m 145.49627,138.57982 c 2.30943,1.179 10.50206,0.0238 9.6384,-3.02381 -1.83235,-6.46584 -3.76724,-10.44738 -2.09741,-32.8705 0.0602,-0.80801 1.2317,-0.26725 1.27701,-1.50477 0.0765,-2.089035 -7.0509,-1.906725 -7.03981,-0.14174 0.16802,26.74503 -7.42793,34.65653 -1.77819,37.54082 z"
             id="path4597"
             inkscape:connector-curvature="0"
             sodipodi:nodetypes="ssssss" />
          <path
             style="fill:#000000;fill-opacity:1;stroke:#000000;stroke-width:0.26458332px;stroke-linecap:butt;stroke-linejoin:miter;stroke-opacity:1"
             d="m 147.33904,101.4044 c -0.18456,6.14747 -3.01114,13.3476 -7.06701,18.37298 -0.95119,1.17857 4.34411,0.8969 4.77983,0 1.03195,-2.12423 2.79633,-4.27339 4.16281,-16.87434 0.10972,-1.0118 -1.83517,-2.8463 -1.87563,-1.49864 z"
             id="path4599"
             inkscape:connector-curvature="0"
             sodipodi:nodetypes="sssss" />
          <path
             style="fill:#000000;fill-opacity:1;stroke:#000000;stroke-width:0.26458332px;stroke-linecap:butt;stroke-linejoin:miter;stroke-opacity:1"
             d="m 153.75825,101.56669 c 1.1,3.06478 1.03133,6.03367 4.27632,6.94901 1.66484,0.46962 5.44163,-2.76026 5.07811,-1.06908 -0.3842,1.78737 -0.55616,3.78143 -1.31964,4.25961 -1.3971,0.87502 -3.77133,1.636 -4.96119,0.41761 -1.95454,-2.00141 -3.95731,-5.22298 -4.81085,-6.94901 -0.65638,-1.32732 1.23701,-5.00183 1.73725,-3.60814 z"
             id="path4601"
             inkscape:connector-curvature="0"
             sodipodi:nodetypes="sssssss" />
          <path
             style="fill:#000000;fill-opacity:1;stroke:#000000;stroke-width:0.23442699px;stroke-linecap:butt;stroke-linejoin:miter;stroke-opacity:1"
             d="m 153.35284,92.063375 c -0.60115,0.76357 1.51297,0.52451 1.59076,0 0.18985,-1.280342 -3.03157,-2.391851 -5.35834,-2.344276 -4.65461,0.09517 -5.04036,1.418967 -4.68853,4.688536 0.20051,1.86331 -0.68128,6.429825 0.99635,6.139995 1.35207,-0.23359 1.92001,-0.680697 1.67033,-1.136722 -1.09606,-2.00193 -1.08439,-3.000402 -0.82475,-4.794003 0.28807,-1.989988 1.40575,-3.005819 2.93033,-3.265234 2.15059,-0.365934 4.06837,0.223284 3.68385,0.711704 z"
             id="path4603"
             inkscape:connector-curvature="0"
             sodipodi:nodetypes="sssssssss" />
          <path
             style="fill:#000000;fill-opacity:1;stroke:#000000;stroke-width:0.26458332px;stroke-linecap:butt;stroke-linejoin:miter;stroke-opacity:1"
             d="m 144.56653,91.243807 c -1.02349,0.105761 -2.74352,-0.392654 -1.15348,-1.343062 2.04833,-1.224343 6.7955,-1.42468 10.73188,-0.77888 2.42758,0.398266 1.77728,1.833261 0.66007,1.753464 -4.23246,-0.302306 -6.0177,-0.06767 -10.23847,0.368478 z"
             id="path4605"
             inkscape:connector-curvature="0"
             sodipodi:nodetypes="sssss" />
          <path
             style="fill:#000000;fill-opacity:1;stroke:#000000;stroke-width:0.22483711px;stroke-linecap:butt;stroke-linejoin:miter;stroke-opacity:1"
             d="m 146.61798,89.175818 c -0.87336,-0.04187 -3.79155,0.856545 -2.33432,0.261142 0.61354,-0.250682 3.97252,-5.962503 3.69703,-9.359861 -0.19102,-2.3556 1.77272,-0.133211 2.21669,0.623044 0.54764,0.932835 1.42983,3.000944 2.1996,4.542003 0.42001,0.840851 2.56195,4.606899 1.63355,4.397173 -3.5172,-0.794525 -3.81086,-0.29087 -7.41255,-0.463504 z"
             id="path4605-9"
             inkscape:connector-curvature="0"
             sodipodi:nodetypes="cssssssc" />
        </g>
      </g>
    </g>
    <path
       style="fill:#161616;fill-opacity:1;stroke:#000000;stroke-width:0.13899811px;stroke-linecap:butt;stroke-linejoin:miter;stroke-opacity:1"
       d="m 189.14909,110.77593 c 0.18428,1.20169 5.08392,1.22628 4.5639,0.0885 -1.5766,-3.4494 -0.21482,-9.4841 -0.44526,-11.86627 -0.1196,-1.236455 -4.72189,-1.645593 -4.67521,-0.08855 0.0707,2.35591 -0.0761,7.74076 0.55657,11.86627 z"
       id="path5225"
       inkscape:connector-curvature="0"
       sodipodi:nodetypes="sssss" />
    <path
       style="fill:#161616;fill-opacity:1;stroke:#000000;stroke-width:0.04831416px;stroke-linecap:butt;stroke-linejoin:miter;stroke-opacity:1"
       d="m 214.71991,105.63921 c -0.37878,0.0465 -0.43777,1.93031 -0.0755,1.7534 1.09824,-0.53638 2.97647,0.10969 3.72594,0.0694 0.389,-0.021 0.56547,-2.34204 0.0767,-2.35565 -0.73956,-0.0206 -2.42672,0.37321 -3.7271,0.53286 z"
       id="path5225-8"
       inkscape:connector-curvature="0"
       sodipodi:nodetypes="cssssc" />
    <path
       style="fill:#161616;fill-opacity:1;stroke:#000000;stroke-width:0.04736479px;stroke-linecap:butt;stroke-linejoin:miter;stroke-opacity:1"
       d="m 206.91791,103.03247 c -0.44731,0.0378 -0.51696,1.571 -0.0892,1.42702 1.29692,-0.43654 3.51493,0.0893 4.39998,0.0565 0.45938,-0.017 0.66777,-1.45077 0.0906,-1.46185 -0.87335,-0.0168 -2.86572,-0.15157 -4.40136,-0.0216 z"
       id="path5225-8-9"
       inkscape:connector-curvature="0"
       sodipodi:nodetypes="sssss" />
    <path
       style="fill:#161616;fill-opacity:1;stroke:#000000;stroke-width:0.050777px;stroke-linecap:butt;stroke-linejoin:miter;stroke-opacity:1"
       d="m 197.3689,104.15941 c -0.39054,0.0403 -0.25039,2.03636 0.10881,1.85728 1.08928,-0.5429 3.11963,0.18624 3.89785,0.1611 0.40394,-0.013 0.39956,-1.87673 -0.11228,-1.90265 -0.77442,-0.0394 -2.55379,-0.25448 -3.89448,-0.1157 z"
       id="path5225-8-5"
       inkscape:connector-curvature="0"
       sodipodi:nodetypes="sssss" />
    <path
       style="fill:#161616;fill-opacity:1;stroke:#000000;stroke-width:0.04460276px;stroke-linecap:butt;stroke-linejoin:miter;stroke-opacity:1"
       d="m 198.90751,97.682601 c -0.39666,0.03782 -0.45843,1.571001 -0.0791,1.427017 1.15007,-0.436536 3.11694,0.08927 3.90177,0.05647 0.40737,-0.01703 0.59216,-1.450772 0.0803,-1.461853 -0.77446,-0.01678 -2.54125,-0.151566 -3.903,-0.02164 z"
       id="path5225-8-3"
       inkscape:connector-curvature="0"
       sodipodi:nodetypes="sssss" />
    <path
       style="fill:#161616;fill-opacity:1;stroke:#000000;stroke-width:0.04460276px;stroke-linecap:butt;stroke-linejoin:miter;stroke-opacity:1"
       d="m 210.51786,96.754372 c -0.39666,0.05749 -0.45843,1.593728 -0.0791,1.43094 1.15007,-0.49355 3.11694,-0.06525 3.90177,-0.136957 0.40737,-0.03723 0.59216,-1.480128 0.0803,-1.465836 -0.77446,0.02161 -2.54125,-0.02558 -3.903,0.171855 z"
       id="path5225-8-7"
       inkscape:connector-curvature="0"
       sodipodi:nodetypes="sssss" />
    <path
       style="fill:#161616;fill-opacity:1;stroke:#000000;stroke-width:0.04460276px;stroke-linecap:butt;stroke-linejoin:miter;stroke-opacity:1"
       d="m 216.5507,92.866642 c -0.39666,0.07715 -0.45843,1.616453 -0.0791,1.434862 1.15007,-0.550565 3.11694,-0.219769 3.90177,-0.330386 0.40737,-0.05743 0.59216,-1.509485 0.0803,-1.469818 -0.77447,0.06001 -2.54125,0.100398 -3.903,0.365345 z"
       id="path5225-8-0"
       inkscape:connector-curvature="0"
       sodipodi:nodetypes="sssss" />
    <path
       style="fill:#161616;fill-opacity:1;stroke:#000000;stroke-width:0.04460276px;stroke-linecap:butt;stroke-linejoin:miter;stroke-opacity:1"
       d="m 205.73712,90.966807 c -0.39665,0.03782 -0.45842,1.571001 -0.0791,1.427016 1.15007,-0.436535 3.11694,0.08928 3.90178,0.05647 0.40736,-0.01703 0.59216,-1.450772 0.0803,-1.461854 -0.77446,-0.01678 -2.54124,-0.151565 -3.90299,-0.02164 z"
       id="path5225-8-4"
       inkscape:connector-curvature="0"
       sodipodi:nodetypes="sssss" />
    <path
       style="fill:#161616;fill-opacity:1;stroke:#000000;stroke-width:0.04460276px;stroke-linecap:butt;stroke-linejoin:miter;stroke-opacity:1"
       d="m 197.54158,88.57644 c -0.39666,0.03782 -0.45843,1.571 -0.0791,1.427016 1.15007,-0.436536 3.11694,0.08928 3.90178,0.05647 0.40736,-0.01704 0.59215,-1.450772 0.0803,-1.461854 -0.77446,-0.01678 -2.54124,-0.151565 -3.903,-0.02163 z"
       id="path5225-8-6"
       inkscape:connector-curvature="0"
       sodipodi:nodetypes="sssss" />
    <path
       style="fill:#161616;fill-opacity:1;stroke:#000000;stroke-width:0.04460276px;stroke-linecap:butt;stroke-linejoin:miter;stroke-opacity:1"
       d="m 185.8174,86.2999 c -0.39666,0.03782 -0.45843,1.571 -0.0791,1.427016 1.15007,-0.436536 3.11694,0.08928 3.90177,0.05647 0.40737,-0.01704 0.59216,-1.450772 0.0803,-1.461854 -0.77446,-0.01678 -2.54125,-0.151565 -3.903,-0.02164 z"
       id="path5225-8-63"
       inkscape:connector-curvature="0"
       sodipodi:nodetypes="sssss" />
    <path
       style="fill:#161616;fill-opacity:1;stroke:#000000;stroke-width:0.04916116px;stroke-linecap:butt;stroke-linejoin:miter;stroke-opacity:1"
       d="m 198.27812,81.006877 c 0.40085,0.0018 0.23855,-1.834989 -0.1289,-1.706957 -1.11412,0.38816 -3.20674,-0.478391 -4.00606,-0.532358 -0.41488,-0.02801 -0.39326,1.674465 0.13279,1.748717 0.79599,0.112368 2.62606,0.484787 4.0022,0.490603 z"
       id="path5225-8-96"
       inkscape:connector-curvature="0"
       sodipodi:nodetypes="sssss" />
    <path
       style="fill:#161616;fill-opacity:1;stroke:#000000;stroke-width:0.04460276px;stroke-linecap:butt;stroke-linejoin:miter;stroke-opacity:1"
       d="m 212.28078,85.327065 c -0.39666,0.03782 -0.45843,1.571 -0.0791,1.427016 1.15007,-0.436536 3.11694,0.08928 3.90178,0.05647 0.40736,-0.01704 0.59215,-1.450772 0.0803,-1.461854 -0.77446,-0.01678 -2.54124,-0.151565 -3.903,-0.02163 z"
       id="path5225-8-48"
       inkscape:connector-curvature="0"
       sodipodi:nodetypes="sssss" />
    <path
       style="fill:#161616;fill-opacity:1;stroke:#000000;stroke-width:0.04460276px;stroke-linecap:butt;stroke-linejoin:miter;stroke-opacity:1"
       d="m 202.78322,82.268526 c -0.39666,0.03782 -0.45843,1.571001 -0.0791,1.427016 1.15007,-0.436536 3.11694,0.08928 3.90178,0.05647 0.40736,-0.01704 0.59215,-1.450772 0.0803,-1.461854 -0.77446,-0.01678 -2.54124,-0.151565 -3.903,-0.02164 z"
       id="path5225-8-2"
       inkscape:connector-curvature="0"
       sodipodi:nodetypes="sssss" />
    <path
       style="fill:#161616;fill-opacity:1;stroke:#000000;stroke-width:0.04460276px;stroke-linecap:butt;stroke-linejoin:miter;stroke-opacity:1"
       d="m 212.76371,76.312425 c -0.39665,0.03782 -0.45842,1.571001 -0.0791,1.427016 1.15007,-0.436536 3.11694,0.08928 3.90178,0.05647 0.40736,-0.01704 0.59216,-1.450772 0.0803,-1.461854 -0.77446,-0.01678 -2.54124,-0.151565 -3.90299,-0.02163 z"
       id="path5225-8-72"
       inkscape:connector-curvature="0"
       sodipodi:nodetypes="sssss" />
    <path
       style="fill:#161616;fill-opacity:1;stroke:#000000;stroke-width:0.04460276px;stroke-linecap:butt;stroke-linejoin:miter;stroke-opacity:1"
       d="m 215.33932,57.236803 c -0.39666,0.03782 -0.45843,1.571 -0.0791,1.427016 1.15006,-0.436536 3.11694,0.08928 3.90177,0.05647 0.40737,-0.01704 0.59216,-1.450772 0.0803,-1.461854 -0.77447,-0.01678 -2.54125,-0.151565 -3.903,-0.02163 z"
       id="path5225-8-09"
       inkscape:connector-curvature="0"
       sodipodi:nodetypes="sssss" />
    <path
       style="fill:#161616;fill-opacity:1;stroke:#000000;stroke-width:0.04460276px;stroke-linecap:butt;stroke-linejoin:miter;stroke-opacity:1"
       d="m 208.02064,65.828086 c -0.39665,0.03782 -0.45842,1.571 -0.0791,1.427016 1.15007,-0.436536 3.11694,0.08928 3.90178,0.05647 0.40736,-0.01704 0.59216,-1.450773 0.0803,-1.461854 -0.77446,-0.01678 -2.54124,-0.151565 -3.90299,-0.02164 z"
       id="path5225-8-1"
       inkscape:connector-curvature="0"
       sodipodi:nodetypes="sssss" />
    <path
       style="fill:#161616;fill-opacity:1;stroke:#000000;stroke-width:0.04460276px;stroke-linecap:butt;stroke-linejoin:miter;stroke-opacity:1"
       d="m 205.19785,51.039238 c -0.39665,0.03782 -0.45842,1.571 -0.0791,1.427016 1.15007,-0.436536 3.11695,0.08927 3.90178,0.05647 0.40736,-0.01704 0.59216,-1.450773 0.0803,-1.461854 -0.77446,-0.01678 -2.54124,-0.151565 -3.90299,-0.02164 z"
       id="path5225-8-53"
       inkscape:connector-curvature="0"
       sodipodi:nodetypes="sssss" />
    <path
       style="fill:#161616;fill-opacity:1;stroke:#000000;stroke-width:0.05002715px;stroke-linecap:butt;stroke-linejoin:miter;stroke-opacity:1"
       d="m 208.85469,39.235631 c -0.34001,0.0555 -0.39296,2.305575 -0.0678,2.094266 0.98586,-0.640653 2.67187,0.131018 3.34463,0.08288 0.3492,-0.025 0.5076,-2.12913 0.0688,-2.145393 -0.66388,-0.02463 -2.17837,-0.222435 -3.34567,-0.03175 z"
       id="path5225-8-03"
       inkscape:connector-curvature="0"
       sodipodi:nodetypes="sssss" />
    <path
       style="fill:#161616;fill-opacity:1;stroke:#000000;stroke-width:0.04460276px;stroke-linecap:butt;stroke-linejoin:miter;stroke-opacity:1"
       d="m 201.17346,34.458739 c -1.59855,-0.516903 -1.20657,1.2257 -0.0791,1.427016 1.21098,0.21623 3.11694,0.08927 3.90178,0.05647 0.40736,-0.01704 0.59216,-1.450773 0.0803,-1.461854 -0.77446,-0.01678 -2.54124,-0.151565 -3.90299,-0.02163 z"
       id="path5225-8-93"
       inkscape:connector-curvature="0"
       sodipodi:nodetypes="cssssc" />
    <path
       style="fill:#161616;fill-opacity:1;stroke:#000000;stroke-width:0.05299993px;stroke-linecap:butt;stroke-linejoin:miter;stroke-opacity:1"
       d="m 195.70028,29.339646 c -0.39665,0.0534 -0.45842,2.218214 -0.0791,2.014911 1.15007,-0.616377 3.11695,0.126055 3.90178,0.07973 0.40736,-0.02405 0.59216,-2.048454 0.0803,-2.064102 -0.77446,-0.0237 -2.54124,-0.214006 -3.90299,-0.03054 z"
       id="path5225-8-56"
       inkscape:connector-curvature="0"
       sodipodi:nodetypes="sssss" />
    <path
       style="fill:#161616;fill-opacity:1;stroke:#000000;stroke-width:0.04460276px;stroke-linecap:butt;stroke-linejoin:miter;stroke-opacity:1"
       d="m 209.70518,33.653861 c -0.39666,0.03782 -0.45843,1.571 -0.0791,1.427016 1.15007,-0.436536 3.12805,0.192077 3.90177,0.05647 2.04575,-0.35854 2.38628,-1.859203 0.0803,-1.461853 -0.7634,0.131543 -2.54125,-0.151566 -3.903,-0.02164 z"
       id="path5225-8-00"
       inkscape:connector-curvature="0"
       sodipodi:nodetypes="cssssc" />
    <path
       style="fill:#161616;fill-opacity:1;stroke:#000000;stroke-width:0.05063396px;stroke-linecap:butt;stroke-linejoin:miter;stroke-opacity:1"
       d="m 196.53131,39.785432 c -0.42421,0.04557 -0.49026,1.893077 -0.0846,1.719574 1.22997,-0.526032 3.33347,0.107577 4.17283,0.06805 0.43567,-0.02053 0.6333,-1.7482 0.0859,-1.761554 -0.82826,-0.02022 -2.71778,-0.182638 -4.17413,-0.02607 z"
       id="path5225-8-95"
       inkscape:connector-curvature="0"
       sodipodi:nodetypes="sssss" />
    <path
       style="fill:#161616;fill-opacity:1;stroke:#000000;stroke-width:0.04460276px;stroke-linecap:butt;stroke-linejoin:miter;stroke-opacity:1"
       d="m 197.31004,54.580703 c -1.00032,-0.307133 -0.91265,1.311444 -0.0791,1.427016 1.21848,0.168949 3.11694,0.08928 3.90178,0.05647 0.40736,-0.01703 0.59215,-1.450772 0.0803,-1.461854 -0.77446,-0.01678 -2.54124,-0.151565 -3.90299,-0.02164 z"
       id="path5225-8-953"
       inkscape:connector-curvature="0"
       sodipodi:nodetypes="cssssc" />
    <path
       style="fill:#161616;fill-opacity:1;stroke:#000000;stroke-width:0.05233921px;stroke-linecap:butt;stroke-linejoin:miter;stroke-opacity:1"
       d="m 188.9393,68.928636 c -0.39665,0.05208 -0.45842,2.163252 -0.0791,1.964987 1.15007,-0.601106 3.11695,0.12293 3.90178,0.07776 0.40736,-0.02346 0.59216,-1.997699 0.0803,-2.012959 -0.77446,-0.02311 -2.54124,-0.208703 -3.90299,-0.02979 z"
       id="path5225-8-18"
       inkscape:connector-curvature="0"
       sodipodi:nodetypes="sssss" />
    <path
       style="fill:#161616;fill-opacity:1;stroke:#000000;stroke-width:0.04681112px;stroke-linecap:butt;stroke-linejoin:miter;stroke-opacity:1"
       d="m 186.84662,63.444656 c -0.39666,0.04166 -0.45843,1.730417 -0.0791,1.571822 1.15007,-0.480833 3.11694,0.09833 3.90177,0.0622 0.40737,-0.01877 0.59216,-1.597989 0.0803,-1.610195 -0.77446,-0.01848 -2.54125,-0.166945 -3.903,-0.02383 z"
       id="path5225-8-79"
       inkscape:connector-curvature="0"
       sodipodi:nodetypes="sssss" />
    <path
       style="fill:#161616;fill-opacity:1;stroke:#000000;stroke-width:0.04460276px;stroke-linecap:butt;stroke-linejoin:miter;stroke-opacity:1"
       d="m 188.2954,44.92216 c -0.39665,0.03782 -0.45842,1.571001 -0.0791,1.427016 1.15007,-0.436536 3.11695,0.08928 3.90178,0.05647 0.40736,-0.01704 0.59216,-1.450772 0.0803,-1.461854 -0.77446,-0.01678 -2.54124,-0.151565 -3.90299,-0.02164 z"
       id="path5225-8-28"
       inkscape:connector-curvature="0"
       sodipodi:nodetypes="sssss" />
    <path
       style="fill:#161616;fill-opacity:1;stroke:#000000;stroke-width:0.05202461px;stroke-linecap:butt;stroke-linejoin:miter;stroke-opacity:1"
       d="m 189.58321,33.352079 c -0.39666,0.05146 -0.45843,2.137325 -0.0791,1.941437 1.15006,-0.593902 3.1441,0.286316 3.90177,0.07683 1.9809,-0.547686 2.6475,-2.658872 0.0803,-1.988833 -0.74969,0.195669 -2.54125,-0.206202 -3.903,-0.02944 z"
       id="path5225-8-183"
       inkscape:connector-curvature="0"
       sodipodi:nodetypes="cssssc" />
    <path
       style="fill:#161616;fill-opacity:1;stroke:#000000;stroke-width:0.04460276px;stroke-linecap:butt;stroke-linejoin:miter;stroke-opacity:1"
       d="m 207.34319,70.39274 c 0.39406,-0.05898 0.37376,-1.593267 0.003,-1.429205 -1.12509,0.497412 -3.11726,0.07754 -3.89922,0.152258 -0.40587,0.0388 -0.51373,1.480362 -0.002,1.464057 0.77425,-0.02466 2.5457,0.01545 3.89857,-0.187111 z"
       id="path5225-8-55"
       inkscape:connector-curvature="0"
       sodipodi:nodetypes="sssss" />
    <path
       style="fill:#161616;fill-opacity:1;stroke:#000000;stroke-width:0.04460276px;stroke-linecap:butt;stroke-linejoin:miter;stroke-opacity:1"
       d="m 220.09037,73.105723 c 0.39045,-0.07948 0.29004,-1.610613 -0.072,-1.427396 -1.09757,0.555494 -3.10895,0.240239 -3.88594,0.355701 -0.40329,0.05994 -0.43571,1.505174 0.0744,1.462166 0.77191,-0.06506 2.54304,-0.117527 3.88347,-0.390473 z"
       id="path5225-8-13"
       inkscape:connector-curvature="0"
       sodipodi:nodetypes="sssss" />
    <path
       style="fill:#161616;fill-opacity:1;stroke:#000000;stroke-width:0.04460276px;stroke-linecap:butt;stroke-linejoin:miter;stroke-opacity:1"
       d="m 192.19171,14.816531 c -0.39665,0.03782 -0.45842,1.571001 -0.0791,1.427016 1.15007,-0.436536 3.11694,0.08928 3.90178,0.05647 0.40736,-0.01704 0.59216,-1.450772 0.0803,-1.461854 -0.77446,-0.01678 -2.54124,-0.151565 -3.90299,-0.02163 z"
       id="path5225-8-8"
       inkscape:connector-curvature="0"
       sodipodi:nodetypes="sssss" />
    <path
       style="fill:#161616;fill-opacity:1;stroke:#000000;stroke-width:0.04460276px;stroke-linecap:butt;stroke-linejoin:miter;stroke-opacity:1"
       d="m 213.59119,12.767645 c -0.39666,0.03782 -0.45843,1.571 -0.0791,1.427016 1.15007,-0.436536 3.11694,0.08928 3.90178,0.05647 0.40736,-0.01704 0.59215,-1.450773 0.0803,-1.461854 -0.77446,-0.01678 -2.54124,-0.151565 -3.903,-0.02163 z"
       id="path5225-8-74"
       inkscape:connector-curvature="0"
       sodipodi:nodetypes="sssss" />
    <path
       style="fill:#161616;fill-opacity:1;stroke:#000000;stroke-width:0.04460276px;stroke-linecap:butt;stroke-linejoin:miter;stroke-opacity:1"
       d="m 210.63169,23.012077 c -0.39666,0.03782 -0.45843,1.571 -0.0791,1.427016 1.15007,-0.436536 3.11694,0.08927 3.90178,0.05647 0.40736,-0.01703 0.59215,-1.450771 0.0803,-1.461853 -0.77446,-0.01678 -2.54124,-0.151565 -3.903,-0.02163 z"
       id="path5225-8-11"
       inkscape:connector-curvature="0"
       sodipodi:nodetypes="sssss" />
    <path
       style="fill:#161616;fill-opacity:1;stroke:#000000;stroke-width:0.04460276px;stroke-linecap:butt;stroke-linejoin:miter;stroke-opacity:1"
       d="m 204.71268,18.914304 c -0.39665,0.03782 -0.45842,1.571 -0.0791,1.427016 1.15007,-0.436536 3.11694,0.08928 3.90178,0.05647 0.40736,-0.01704 0.59215,-1.450772 0.0803,-1.461854 -0.77446,-0.01678 -2.54124,-0.151565 -3.90299,-0.02163 z"
       id="path5225-8-31"
       inkscape:connector-curvature="0"
       sodipodi:nodetypes="sssss" />
    <path
       style="fill:#161616;fill-opacity:1;stroke:#000000;stroke-width:0.04828405px;stroke-linecap:butt;stroke-linejoin:miter;stroke-opacity:1"
       d="m 190.56088,54.604478 c 0.40092,0.0017 0.23859,-1.769761 -0.12893,-1.64628 -1.11433,0.374361 -3.20735,-0.461386 -4.00682,-0.513435 -0.41495,-0.02701 -0.39332,1.614943 0.13283,1.686556 0.79613,0.108374 2.62655,0.467554 4.00294,0.473163 z"
       id="path5225-8-96-9"
       inkscape:connector-curvature="0"
       sodipodi:nodetypes="sssss" />
    <path
       style="fill:#161616;fill-opacity:1;stroke:#000000;stroke-width:0.04460276px;stroke-linecap:butt;stroke-linejoin:miter;stroke-opacity:1"
       d="m 217.92562,45.392202 c 0.39022,-0.09337 -0.12444,-1.522694 -0.45696,-1.333504 -1.00825,0.573602 -3.21198,0.375965 -3.99991,0.52184 -0.40898,0.07571 -0.0572,1.431003 0.46885,1.365951 0.79604,-0.09842 2.64841,-0.23355 3.98804,-0.55429 z"
       id="path5225-8-96-97"
       inkscape:connector-curvature="0"
       sodipodi:nodetypes="sssss" />
    <path
       style="fill:#161616;fill-opacity:1;stroke:#000000;stroke-width:0.05299993px;stroke-linecap:butt;stroke-linejoin:miter;stroke-opacity:1"
       d="m 190.14282,21.124163 c -0.39665,0.0534 -0.45842,2.218214 -0.0791,2.014911 1.15007,-0.616377 3.11694,0.126055 3.90178,0.07973 0.40736,-0.02405 0.59216,-2.048454 0.0803,-2.064102 -0.77446,-0.0237 -2.54124,-0.214006 -3.90299,-0.03054 z"
       id="path5225-8-56-9"
       inkscape:connector-curvature="0"
       sodipodi:nodetypes="sssss" />
    <path
       style="fill:#161616;fill-opacity:1;stroke:#000000;stroke-width:0.26458332px;stroke-linecap:butt;stroke-linejoin:miter;stroke-opacity:1"
       d="m 180.34011,-22.955033 c 1.47611,1.568469 0.68529,-1.01497 2.19073,-0.342601 6.89931,3.081419 12.84036,4.596308 25.34461,4.086748 2.22219,-0.09056 7.75696,-1.649552 3.03866,-0.836569 -16.31605,2.811322 -36.06232,-8.739288 -30.574,-2.907578 z"
       id="path5490"
       inkscape:connector-curvature="0"
       sodipodi:nodetypes="sssss" />
    <path
       style="fill:#161616;fill-opacity:1;stroke:#000000;stroke-width:0.32685584px;stroke-linecap:butt;stroke-linejoin:miter;stroke-opacity:1"
       d="m 175.05216,-17.177278 c 1.82353,1.937624 0.84658,-1.253855 2.70635,-0.423236 8.52314,3.806664 15.86247,5.678099 31.30973,5.048608 2.74521,-0.111877 9.58265,-2.037792 3.75385,-1.033464 -20.15622,3.472997 -44.54998,-10.796174 -37.76993,-3.591908 z"
       id="path5490-7"
       inkscape:connector-curvature="0"
       sodipodi:nodetypes="sssss" />
    <path
       style="fill:#161616;fill-opacity:1;stroke:#000000;stroke-width:0.26458332px;stroke-linecap:butt;stroke-linejoin:miter;stroke-opacity:1"
       d="m 183.59483,-28.531557 c 1.6054,1.435856 0.59557,-1.070092 2.1532,-0.529543 7.13853,2.4773 13.18776,3.476183 25.60201,1.894252 2.20619,-0.281137 7.58656,-2.309864 2.95555,-1.09453 -16.0142,4.20266 -36.6798,-5.60882 -30.71076,-0.270179 z"
       id="path5490-1"
       inkscape:connector-curvature="0"
       sodipodi:nodetypes="sssss" />
    <path
       style="fill:#161616;fill-opacity:1;stroke:#000000;stroke-width:0.19432656px;stroke-linecap:butt;stroke-linejoin:miter;stroke-opacity:1"
       d="m 186.6676,-33.39177 c 1.17911,1.054582 0.43743,-0.785943 1.58145,-0.38893 5.24298,1.819484 9.68592,2.553127 18.80372,1.391257 1.62036,-0.206484 5.57204,-1.696508 2.17074,-0.803891 -11.76183,3.086697 -26.93994,-4.119469 -22.55591,-0.198436 z"
       id="path5490-1-1"
       inkscape:connector-curvature="0"
       sodipodi:nodetypes="sssss" />
    <path
       style="fill:#161616;fill-opacity:1;stroke:#000000;stroke-width:0.04460276px;stroke-linecap:butt;stroke-linejoin:miter;stroke-opacity:1"
       d="m 200.64948,10.307114 c -0.39665,0.03782 -0.45842,1.571001 -0.0791,1.427016 1.15007,-0.436536 3.11694,0.08928 3.90178,0.05647 0.40736,-0.01704 0.59216,-1.450772 0.0803,-1.461854 -0.77446,-0.01678 -2.54124,-0.151565 -3.90299,-0.02163 z"
       id="path5225-8-8-6"
       inkscape:connector-curvature="0"
       sodipodi:nodetypes="sssss" />
    <path
       style="fill:#161616;fill-opacity:1;stroke:#000000;stroke-width:0.04460276px;stroke-linecap:butt;stroke-linejoin:miter;stroke-opacity:1"
       d="m 216.68566,4.9617237 c -0.39665,0.03782 -0.45842,1.571001 -0.0791,1.427016 1.15007,-0.436536 3.11694,0.08928 3.90178,0.05647 0.40736,-0.01704 0.59216,-1.450772 0.0803,-1.461854 -0.77446,-0.01678 -2.54124,-0.151565 -3.90299,-0.02163 z"
       id="path5225-8-8-4"
       inkscape:connector-curvature="0"
       sodipodi:nodetypes="sssss" />
    <path
       style="fill:#161616;fill-opacity:1;stroke:#000000;stroke-width:0.04460276px;stroke-linecap:butt;stroke-linejoin:miter;stroke-opacity:1"
       d="m 196.1059,1.7544893 c -0.39665,0.03782 -0.45842,1.571001 -0.0791,1.427016 1.15007,-0.436536 3.11694,0.08928 3.90178,0.05647 0.40736,-0.01704 0.59216,-1.450772 0.0803,-1.461854 -0.77446,-0.01678 -2.54124,-0.151565 -3.90299,-0.02163 z"
       id="path5225-8-8-0"
       inkscape:connector-curvature="0"
       sodipodi:nodetypes="sssss" />
    <path
       style="fill:#161616;fill-opacity:1;stroke:#000000;stroke-width:0.04460276px;stroke-linecap:butt;stroke-linejoin:miter;stroke-opacity:1"
       d="m 205.72761,3.8926456 c -0.39665,0.03782 -0.45842,1.5710009 -0.0791,1.4270159 1.15007,-0.436536 3.11694,0.08928 3.90178,0.05647 0.40736,-0.01704 0.59216,-1.450772 0.0803,-1.4618539 -0.77446,-0.01678 -2.54124,-0.1515651 -3.90299,-0.02163 z"
       id="path5225-8-8-2"
       inkscape:connector-curvature="0"
       sodipodi:nodetypes="sssss" />
    <path
       style="fill:#161616;fill-opacity:1;stroke:#000000;stroke-width:0.04460276px;stroke-linecap:butt;stroke-linejoin:miter;stroke-opacity:1"
       d="m 215.88385,-3.3236317 c -0.39665,0.03782 -0.45842,1.571001 -0.0791,1.427016 1.15007,-0.436536 3.11694,0.08928 3.90178,0.05647 0.40736,-0.01704 0.59216,-1.450772 0.0803,-1.461854 -0.77446,-0.01678 -2.54124,-0.151565 -3.90299,-0.02163 z"
       id="path5225-8-8-8"
       inkscape:connector-curvature="0"
       sodipodi:nodetypes="sssss" />
    <path
       style="fill:#161616;fill-opacity:1;stroke:#000000;stroke-width:0.04460276px;stroke-linecap:butt;stroke-linejoin:miter;stroke-opacity:1"
       d="m 187.82055,-5.996327 c -0.39665,0.03782 -0.45842,1.571001 -0.0791,1.427016 1.15007,-0.436536 3.11694,0.08928 3.90178,0.05647 0.40736,-0.01704 0.59216,-1.450772 0.0803,-1.461854 -0.77446,-0.01678 -2.54124,-0.151565 -3.90299,-0.02163 z"
       id="path5225-8-8-7"
       inkscape:connector-curvature="0"
       sodipodi:nodetypes="sssss" />
    <path
       style="fill:#161616;fill-opacity:1;stroke:#000000;stroke-width:0.04460276px;stroke-linecap:butt;stroke-linejoin:miter;stroke-opacity:1"
       d="m 206.52941,-4.1254403 c -0.39665,0.03782 -0.45842,1.571001 -0.0791,1.427016 1.15007,-0.436536 3.11694,0.08928 3.90178,0.05647 0.40736,-0.01704 0.59216,-1.450772 0.0803,-1.461854 -0.77446,-0.01678 -2.54124,-0.151565 -3.90299,-0.02163 z"
       id="path5225-8-8-09"
       inkscape:connector-curvature="0"
       sodipodi:nodetypes="sssss" />
    <path
       style="fill:#161616;fill-opacity:1;stroke:#000000;stroke-width:0.04460276px;stroke-linecap:butt;stroke-linejoin:miter;stroke-opacity:1"
       d="m 221.36287,31.555042 c -0.39665,0.03782 -0.45842,1.571001 -0.0791,1.427016 1.15007,-0.436536 3.11694,0.08928 3.90178,0.05647 0.40736,-0.01704 0.59216,-1.450772 0.0803,-1.461854 -0.77446,-0.01678 -2.54124,-0.151565 -3.90299,-0.02163 z"
       id="path5225-8-8-5"
       inkscape:connector-curvature="0"
       sodipodi:nodetypes="sssss" />
    <path
       style="fill:#161616;fill-opacity:1;stroke:#000000;stroke-width:0.04460276px;stroke-linecap:butt;stroke-linejoin:miter;stroke-opacity:1"
       d="m 221.76378,60.553785 c -0.39665,0.03782 -0.45842,1.571001 -0.0791,1.427016 1.15007,-0.436536 3.11694,0.08928 3.90178,0.05647 0.40736,-0.01704 0.59216,-1.450772 0.0803,-1.461854 -0.77446,-0.01678 -2.54124,-0.151565 -3.90299,-0.02163 z"
       id="path5225-8-8-60"
       inkscape:connector-curvature="0"
       sodipodi:nodetypes="sssss" />
    <path
       style="fill:#161616;fill-opacity:1;stroke:#000000;stroke-width:0.04460276px;stroke-linecap:butt;stroke-linejoin:miter;stroke-opacity:1"
       d="m 224.70374,80.465365 c -0.39665,0.03782 -0.45842,1.571001 -0.0791,1.427016 1.15007,-0.436536 3.11694,0.08928 3.90178,0.05647 0.40736,-0.01704 0.59216,-1.450772 0.0803,-1.461854 -0.77446,-0.01678 -2.54124,-0.151565 -3.90299,-0.02163 z"
       id="path5225-8-8-81"
       inkscape:connector-curvature="0"
       sodipodi:nodetypes="sssss" />
  </g>
  <g
     inkscape:label="girl"
     inkscape:groupmode="layer"
     id="layer1"
     sodipodi:insensitive="true">
    <g
       id="g4536"
       transform="matrix(0.21984509,0,0,0.21984509,76.896235,119.46031)"
       style="stroke-width:1.20349896;stroke-miterlimit:4;stroke-dasharray:none">
      <g
         id="g4543"
         transform="translate(-14.613914,-147.85844)">
        <path
           style="fill:none;stroke:#000000;stroke-width:1.20349896;stroke-linecap:round;stroke-linejoin:miter;stroke-miterlimit:4;stroke-dasharray:none;stroke-opacity:1"
           d="m 117.16393,135.57812 c -16.66776,3.32564 -16.66637,32.54894 -20.020987,41.1721 -2.342635,6.02182 -9.793646,10.4084 -8.75792,6.279"
           id="path4485-3"
           inkscape:connector-curvature="0"
           sodipodi:nodetypes="csc" />
        <path
           style="fill:#000000;fill-opacity:1;stroke:#000000;stroke-width:1.20349896;stroke-linecap:butt;stroke-linejoin:miter;stroke-miterlimit:4;stroke-dasharray:none;stroke-opacity:1"
           d="m 119.36742,135.12223 c -19.792557,0.0183 -18.55401,34.48212 -24.999477,49.81962 v 0 c 9.541117,-11.41713 9.347207,-16.89253 12.052037,-25.31087 1.96815,-6.12552 3.34701,-2.5389 2.69642,-8.84542 -0.84409,-8.18218 4.57361,-11.78417 9.99234,-12.95267 1.0623,-0.22907 2.02502,-2.71229 0.25868,-2.71066 z"
           id="path4508"
           inkscape:connector-curvature="0"
           sodipodi:nodetypes="sccssss" />
        <path
           style="fill:#000000;fill-opacity:1;stroke:#000000;stroke-width:1.20349896;stroke-linecap:butt;stroke-linejoin:miter;stroke-miterlimit:4;stroke-dasharray:none;stroke-opacity:1"
           d="m 101.70929,158.54587 c -2.60588,9.68852 -6.303936,17.15122 -9.554888,15.00051 -4.230372,-2.79866 2.44956,-8.18112 0.733247,-6.75917 -4.463241,3.69774 -2.035653,7.20182 -0.876666,7.57007 4.493366,1.42771 8.395437,-10.95576 9.698307,-15.81141 z"
           id="path4525"
           inkscape:connector-curvature="0"
           sodipodi:nodetypes="csssc" />
        <path
           style="fill:#000000;fill-opacity:1;stroke:#000000;stroke-width:1.20349896;stroke-linecap:butt;stroke-linejoin:round;stroke-miterlimit:4;stroke-dasharray:none;stroke-opacity:1"
           d="m 103.72134,160.9327 c -5.970608,9.86958 -5.905571,26.93264 -20.209565,26.85117 4.736699,1.62931 9.052753,0.21369 10.966693,-2.66532 4.957068,-7.45657 7.947632,-20.5945 7.947632,-20.5945"
           id="path4527"
           inkscape:connector-curvature="0"
           sodipodi:nodetypes="ccsc" />
        <path
           style="fill:#000000;fill-opacity:1;stroke:#000000;stroke-width:1.20349896;stroke-linecap:round;stroke-linejoin:round;stroke-miterlimit:4;stroke-dasharray:none;stroke-opacity:1"
           d="m 76.449734,229.23888 c 51.419656,-21.69847 27.749776,-55.92355 32.633356,-70.1906 1.04097,-3.04113 21.5427,-5.07492 34.71718,-21.91655 0.72668,-0.92895 0.90183,-2.8434 1.08687,-4.42258 0.0776,-0.66233 0.65494,0.30688 0.67534,0.78505 0.0577,1.35129 -0.28493,3.70098 -1.01372,4.73556 -8.09405,11.49031 -21.94314,16.74481 -24.48366,20.67804 -3.86142,5.97824 -3.51393,45.10121 -5.69976,65.92943 -1.80169,17.16772 -45.725787,7.69745 -37.915606,4.40165 z"
           id="path4529"
           inkscape:connector-curvature="0"
           sodipodi:nodetypes="sssssssss" />
      </g>
    </g>
  </g>
</svg>
